<?xml version="1.0" encoding="iso-8859-1"?>
<!-- Generator: Adobe Illustrator 19.0.0, SVG Export Plug-In . SVG Version: 6.00 Build 0)  -->
<svg version="1.1" id="Capa_1" xmlns="http://www.w3.org/2000/svg" xmlns:xlink="http://www.w3.org/1999/xlink" x="0px" y="0px"
	 viewBox="0 0 512 512" style="enable-background:new 0 0 512 512;" xml:space="preserve">
<g>
	<path style="fill:#46B29D;" d="M349.29,97.103l43.781,83.95c3.282,5.829,10.568,8.046,16.54,5.032
		c6.788-3.387,13.528-7.417,20.391-10.876c8.536-4.302,18.566-9.684,28.484-6.573c6.644,1.942,11.766,7.251,13.47,13.96
		c1.784,7.431-4.245,15.22-9.003,20.353c-11.395,12.295-22.518,24.641-33.542,37.308l-34.342,39.461l-6.861,7.884
		c-8.803,12.187-12.544,27.31-10.437,42.196l1.504,10.681c2.138,15.091-1.772,30.415-10.879,42.637l-31.665,42.549
		c-2.066,2.77-3.872,5.725-5.395,8.828l-34.494,69.385c-2.425,4.97-7.472,8.122-13.002,8.121h-32.195
		c-4.785-0.011-9.159-2.706-11.321-6.974c-2.759-5.661-1.661-12.446,2.742-16.949l3.096-3.09c3.611-3.633,5.054-8.892,3.803-13.859
		l-30.426-122.792c-0.177-0.441-0.265-0.971-0.442-1.412l-21.847-58.703c-1.591-4.202-2.4-8.66-2.388-13.153v-2.913
		c0.027-14.179-7.948-27.16-20.608-33.545l-2.211-1.059c-6.41-3.266-13.635-4.585-20.785-3.796l-42.985,4.855
		c-12.259,1.331-24.382-3.495-32.371-12.888l-27.242-31.956c-5.761-6.812-8.925-15.443-8.934-24.364v-28.16
		c-0.034-9.922,3.88-19.45,10.879-26.483l34.848-35.134c2.177-2.138,4.079-4.541,5.661-7.15l11.233-18.979
		c6.688-11.272,18.823-18.183,31.93-18.185h46.347c10.535,0.018,20.567,4.51,27.595,12.359c7.049,7.81,17.075,12.268,27.596,12.27
		h17.07L349.29,97.103z"/>
	<path style="fill:#BDC3C7;" d="M295.724,88.276h35.31V220.69c0,9.751-7.905,17.655-17.655,17.655l0,0
		c-9.751,0-17.655-7.904-17.655-17.655V88.276z"/>
	<circle style="fill:#CC4B4C;" cx="313.38" cy="52.966" r="52.966"/>
	<path style="fill:#FB7B76;" d="M295.724,61.793c-2.341,0.001-4.587-0.929-6.243-2.585s-2.585-3.901-2.585-6.243
		c0.016-14.619,11.863-26.467,26.483-26.483c4.875,0,8.828,3.952,8.828,8.828s-3.952,8.828-8.828,8.828
		c-4.873,0.005-8.823,3.954-8.828,8.828c0.001,2.341-0.929,4.587-2.585,6.243C300.311,60.864,298.066,61.794,295.724,61.793z"/>
</g>
<g>
</g>
<g>
</g>
<g>
</g>
<g>
</g>
<g>
</g>
<g>
</g>
<g>
</g>
<g>
</g>
<g>
</g>
<g>
</g>
<g>
</g>
<g>
</g>
<g>
</g>
<g>
</g>
<g>
</g>
</svg>
