<?xml version="1.0" encoding="iso-8859-1"?>
<!-- Generator: Adobe Illustrator 19.0.0, SVG Export Plug-In . SVG Version: 6.00 Build 0)  -->
<svg version="1.1" id="Capa_1" xmlns="http://www.w3.org/2000/svg" xmlns:xlink="http://www.w3.org/1999/xlink" x="0px" y="0px"
	 viewBox="0 0 511.987 511.987" style="enable-background:new 0 0 511.987 511.987;" xml:space="preserve">
<g>
	<path style="fill:#46B29D;" d="M365.204,111.069l58.187,2.389c9.455,0.362,18.815,2.03,27.813,4.955l54.655,17.342
		c3.098,1.021,5.391,3.651,5.98,6.859c0.589,3.208-0.621,6.482-3.155,8.536l-15.01,11.945c-3.287,2.64-4.248,7.235-2.296,10.972
		l10.86,21.235c1.654,3.372,1.046,7.416-1.527,10.152s-6.573,3.591-10.04,2.147l-29.579-11.945
		c-2.134-0.831-3.871-2.445-4.856-4.513l-2.119-4.512c-2.899-6.208-9.13-10.175-15.982-10.175h-17.836
		c-3.257-0.034-6.277,1.7-7.89,4.529c-1.613,2.83-1.568,6.311,0.12,9.097l11.39,18.138c8.455,13.49,9.027,30.477,1.501,44.506
		l-14.745,27.429c-4.325,8.007-6.082,17.151-5.033,26.19l6.004,50.523c0.408,4.139-2.075,8.017-6.004,9.379l-29.314,10.441
		c-2.98,1.034-5.189,3.569-5.806,6.662c-0.617,3.093,0.45,6.282,2.804,8.38l26.047,23.005c1.868,1.699,2.926,4.111,2.914,6.636
		v8.052c-0.045,3.164-1.727,6.079-4.444,7.702s-6.081,1.722-8.889,0.261l-2.207-1.15c-1.323-0.634-2.771-0.966-4.238-0.973h-6.887
		c-2.392-0.026-4.697,0.902-6.403,2.579c-1.707,1.677-2.675,3.965-2.691,6.357v16.723c0.001,0.716,0.09,1.429,0.265,2.124
		l2.914,11.326c0.847,3.679-0.666,7.499-3.802,9.601c-3.136,2.102-7.245,2.049-10.325-0.133l-15.717-10.883
		c-1.931-1.288-3.267-3.295-3.708-5.574l-7.24-38.489c-0.276-1.688-1.044-3.258-2.207-4.513l-14.039-14.865
		c-0.666-0.664-1.204-1.443-1.589-2.301l-10.419-22.209c-1.326-2.745-3.913-4.667-6.924-5.144c-3.011-0.477-6.065,0.553-8.174,2.755
		l-31.698,33.711c-0.609,0.709-1.141,1.48-1.589,2.301l-6.711,14.245c-1.577,3.367-5.029,5.45-8.743,5.276
		c-3.714-0.174-6.956-2.572-8.21-6.072l-16.511-46.895c-0.764-2.217-2.387-4.034-4.503-5.043l-88.561-43.444
		c-3.102-1.615-6.858-1.29-9.638,0.832c-2.78,2.122-4.082,5.66-3.342,9.078l3.532,14.953c0.344,1.517,1.074,2.918,2.119,4.07
		l15.187,16.104l14.745,15.573c2.145,2.312,2.905,5.587,1.997,8.608c-0.908,3.02-3.348,5.334-6.412,6.08l-53.419,12.564
		c-4.258,1.05-8.663-1.064-10.507-5.043l-37.967-80.606c-0.525-1.2-0.795-2.495-0.794-3.805v-18.404
		c0.015-3.822-2.396-7.233-6.004-8.494l-17.129-6.017c-1.356-0.542-2.588-1.355-3.62-2.389l-5.386-5.751
		c-2.092-2.26-2.883-5.434-2.095-8.412s3.044-5.346,5.98-6.276l40.44-12.21c2.889-0.865,6.018-0.271,8.388,1.593l27.284,21.678
		c1.623,1.317,3.649,2.036,5.739,2.035h16.158c3.066,0.043,5.942-1.484,7.624-4.048c1.682-2.564,1.937-5.81,0.676-8.605
		l-23.487-49.903c-1.083-2.27-1.143-4.895-0.164-7.212c0.979-2.317,2.903-4.104,5.285-4.91l7.682-2.654
		c4.536-1.585,7.024-6.456,5.651-11.06l-8.123-25.925c-3.875-12.376-2.132-25.828,4.768-36.808l3.179-5.132
		c1.713-2.686,4.673-4.319,7.858-4.336h10.949c2.393,0.026,4.697-0.902,6.403-2.579c1.707-1.677,2.675-3.965,2.691-6.357v-9.998
		c0.029-4.535,3.441-8.334,7.947-8.848l50.859-6.725c5.464-0.763,11.029,0.229,15.893,2.831l3.973,2.123
		c3.495,1.847,7.353,2.904,11.302,3.097l43.353,1.77L365.204,111.069z"/>
	<path style="fill:#BDC3C7;" d="M300.128,114.75h35.31v132.414c0,9.751-7.904,17.655-17.655,17.655l0,0
		c-9.751,0-17.655-7.904-17.655-17.655V114.75z"/>
	<circle style="fill:#CC4B4C;" cx="317.783" cy="79.44" r="52.966"/>
	<path style="fill:#FB7B76;" d="M300.128,88.267c-2.341,0.001-4.587-0.929-6.243-2.585c-1.656-1.656-2.585-3.901-2.585-6.243
		c0.016-14.619,11.863-26.467,26.483-26.483c4.875,0,8.828,3.952,8.828,8.828s-3.952,8.828-8.828,8.828
		c-4.873,0.005-8.823,3.954-8.828,8.828c0.001,2.341-0.929,4.587-2.585,6.243C304.715,87.338,302.47,88.268,300.128,88.267z"/>
</g>
<g>
</g>
<g>
</g>
<g>
</g>
<g>
</g>
<g>
</g>
<g>
</g>
<g>
</g>
<g>
</g>
<g>
</g>
<g>
</g>
<g>
</g>
<g>
</g>
<g>
</g>
<g>
</g>
<g>
</g>
</svg>
