<?xml version="1.0" encoding="iso-8859-1"?>
<!-- Generator: Adobe Illustrator 19.0.0, SVG Export Plug-In . SVG Version: 6.00 Build 0)  -->
<svg version="1.1" id="Capa_1" xmlns="http://www.w3.org/2000/svg" xmlns:xlink="http://www.w3.org/1999/xlink" x="0px" y="0px"
	 viewBox="0 0 511.984 511.984" style="enable-background:new 0 0 511.984 511.984;" xml:space="preserve">
<g>
	<path style="fill:#46B29D;" d="M123.606,191.271c3.708-2.384,7.168-5.135,10.327-8.21l37.867-37.43
		c5.186-5.165,11.792-8.669,18.977-10.063l17.565-3.443c11.205-2.19,20.778-9.419,25.951-19.597l6.09-12.094
		c2.756-5.39,7.955-9.109,13.946-9.975l40.073-5.65c8.832-1.273,17.321,3.917,20.213,12.359l2.56,7.592
		c1.23,3.562,3.506,6.669,6.532,8.916l47.576,35.31c4.931,3.697,11.372,4.715,17.203,2.718c5.831-1.997,10.296-6.75,11.925-12.694
		l23.744-88.101c1.051-3.693,4.256-6.366,8.078-6.737c3.822-0.371,7.481,1.637,9.222,5.06l12.975,25.6
		c2.559,5.126,3.889,10.778,3.884,16.508v74.683c0,11.514,3.646,22.732,10.415,32.045l29.216,40.519
		c4.49,6.193,7.344,13.42,8.297,21.01l5.384,42.726c1.546,12.303-1.993,24.705-9.798,34.34l-91.533,113.26
		c-5.077,6.24-11.427,11.326-18.624,14.919l-37.867,18.714c-4.417,2.209-9.534,2.558-14.211,0.971l-37.867-12.447
		c-6.482-2.138-11.264-7.666-12.446-14.389l-4.06-24.629c-0.902-5.082-3.879-9.559-8.216-12.356
		c-4.338-2.797-9.644-3.662-14.645-2.386l-1.942,0.441c-8.975,2.237-18.229-2.466-21.714-11.034l-7.061-17.479
		c-3.271-7.983-11.607-12.663-20.125-11.299l-100.007,15.183c-4.052,0.607-8.002,1.765-11.74,3.443l-60.375,26.572
		c-10.584,4.626-22.917,2.355-31.158-5.738v-0.088c-8.54-8.324-10.685-21.23-5.296-31.868l26.304-51.995
		c1.233-2.448,2.096-5.066,2.56-7.768l11.739-69.563c3.87-22.772,19.629-41.732,41.309-49.7l3.443-1.236L123.606,191.271z"/>
	<path style="fill:#BDC3C7;" d="M88.272,127.993h35.31v114.759c0,9.751-7.904,17.655-17.655,17.655l0,0
		c-9.751,0-17.655-7.904-17.655-17.655V127.993z"/>
	<circle style="fill:#CC4B4C;" cx="105.927" cy="79.441" r="52.966"/>
	<path style="fill:#FB7B76;" d="M88.272,88.269c-4.875,0-8.828-3.952-8.828-8.828c0.016-14.619,11.863-26.467,26.483-26.483
		c4.875,0,8.828,3.952,8.828,8.828c0,4.875-3.952,8.828-8.828,8.828c-4.873,0.006-8.821,3.955-8.828,8.828
		C97.1,84.317,93.147,88.269,88.272,88.269z"/>
</g>
<g>
</g>
<g>
</g>
<g>
</g>
<g>
</g>
<g>
</g>
<g>
</g>
<g>
</g>
<g>
</g>
<g>
</g>
<g>
</g>
<g>
</g>
<g>
</g>
<g>
</g>
<g>
</g>
<g>
</g>
</svg>
