<?xml version="1.0" encoding="iso-8859-1"?>
<!-- Generator: Adobe Illustrator 19.0.0, SVG Export Plug-In . SVG Version: 6.00 Build 0)  -->
<svg version="1.1" id="Capa_1" xmlns="http://www.w3.org/2000/svg" xmlns:xlink="http://www.w3.org/1999/xlink" x="0px" y="0px"
	 viewBox="0 0 511.99 511.99" style="enable-background:new 0 0 511.99 511.99;" xml:space="preserve">
<g>
	<path style="fill:#46B29D;" d="M344.256,182.663l34.782-11.74c7.239-2.383,14.478-4.502,21.982-6.179l61.973-14.035
		c3.024-0.788,6.175-0.968,9.27-0.53l24.718,3.09c3.137,0.357,5.844,2.362,7.101,5.257c1.257,2.896,0.872,6.242-1.01,8.777
		l-18.715,25.421c-4.397,5.96-4.609,14.031-0.53,20.213l20.923,31.688c4.743,7.205,7.26,15.647,7.239,24.274v36.543
		c0.014,12.665-5.421,24.723-14.919,33.1l-39.903,35.307c-3.473,3.164-3.934,8.465-1.059,12.181l8.033,10.239
		c4.628,5.844,5.89,13.671,3.334,20.674s-8.565,12.175-15.87,13.663h-0.088c-5.92,1.204-12.073-0.142-16.95-3.708l-45.376-32.836
		c-5.239-3.715-11.499-5.719-17.921-5.737c-14.52-0.054-27.037,10.203-29.838,24.45l-1.677,8.385
		c-1.348,6.911-6.643,12.378-13.507,13.946l-55.882,12.534c-6.858,1.594-14.006-1.043-18.186-6.708l-7.592-10.327
		c-7.782-10.46-17.273-19.531-28.073-26.833l-3.266-2.207c-3.406-2.374-8.008-2.051-11.048,0.777
		c-3.041,2.828-3.697,7.393-1.576,10.963l4.767,8.209c0.901,1.325,1.365,2.9,1.324,4.502v2.119c0.014,2.956-1.442,5.725-3.885,7.389
		c-2.443,1.664-5.553,2.004-8.298,0.909l-63.827-25.862c-7.141-2.896-15.183-2.574-22.07,0.883l-18.451,9.356
		c-3.665,1.889-6.862,4.573-9.358,7.856L63.702,451.88c-3.334,4.505-8.609,7.158-14.214,7.149H21.15
		c-8.679,0.026-16.09-6.261-17.48-14.829l-3.443-20.92c-1.549-9.602,4.968-18.645,14.566-20.213l13.33-2.295
		c5.254-0.864,9.837-4.052,12.475-8.677c2.638-4.625,3.05-10.193,1.12-15.155l-3.884-9.886c-3.21-8.119,0.022-17.364,7.592-21.714
		l47.848-27.804l28.779-17.477c9.59-5.764,20.984-7.746,31.958-5.561l17.48,3.531c5.891,1.188,12.01,0.38,17.391-2.295
		l26.131-13.328c0.288-0.133,0.583-0.251,0.883-0.353l50.585-19.242c3.259-1.254,5.479-4.304,5.669-7.791
		c0.191-3.487-1.683-6.761-4.786-8.362l-29.662-15.006c-2.97-1.494-4.847-4.531-4.855-7.856v-16.771
		c0.026-2.96-1.428-5.737-3.874-7.404c-2.447-1.666-5.563-2.001-8.308-0.893l-13.86,6.267c-9.045,4.166-15.952,11.903-19.069,21.361
		l-5.297,16.241c-1.654,5.954-6.272,10.627-12.206,12.353s-12.337,0.258-16.927-3.879l-4.237-9.886
		c-2.231-2.122-4.965-3.641-7.945-4.413c-6.274-1.659-11.283-6.378-13.314-12.541c-2.031-6.163-0.808-12.936,3.25-17.999
		l16.244-20.213c0.59-0.707,1.273-1.331,2.03-1.854l63.121-41.486c1.914-1.215,4.206-1.686,6.444-1.324l85.191,15.8
		c1.376,0.265,2.674,0.838,3.796,1.677L344.256,182.663z"/>
	<path style="fill:#BDC3C7;" d="M308.955,141.236h35.31V273.65c0,9.751-7.905,17.655-17.655,17.655l0,0
		c-9.751,0-17.655-7.904-17.655-17.655V141.236z"/>
	<circle style="fill:#CC4B4C;" cx="326.61" cy="105.926" r="52.966"/>
	<path style="fill:#FB7B76;" d="M308.955,114.753c-2.341,0.001-4.587-0.929-6.243-2.585c-1.656-1.656-2.585-3.901-2.585-6.243
		c0.016-14.619,11.863-26.467,26.483-26.483c4.875,0,8.828,3.952,8.828,8.828c0,4.875-3.952,8.828-8.828,8.828
		c-4.873,0.005-8.823,3.954-8.828,8.828c0.001,2.341-0.929,4.587-2.585,6.243C313.542,113.824,311.296,114.754,308.955,114.753
		L308.955,114.753z"/>
	<path style="fill:#14A085;" d="M17.645,176.624v53.433l8.828,8.905v8.905l-8.828,17.811v8.791l8.828,9.02l-8.828,17.811
		l13.321,6.719c2.697,1.362,5.906,1.237,8.49-0.329l36.847-22.303c2.012-1.222,3.459-3.191,4.022-5.476l7.941-32.043l-17.655-8.905
		l-8.828-17.811l8.828-17.811l-17.655-8.905l-6.816-20.627c-1.185-3.624-4.561-6.079-8.375-6.089H26.472
		C21.575,167.741,17.623,171.728,17.645,176.624z"/>
</g>
<g>
</g>
<g>
</g>
<g>
</g>
<g>
</g>
<g>
</g>
<g>
</g>
<g>
</g>
<g>
</g>
<g>
</g>
<g>
</g>
<g>
</g>
<g>
</g>
<g>
</g>
<g>
</g>
<g>
</g>
</svg>
