<?xml version="1.0" encoding="iso-8859-1"?>
<!-- Generator: Adobe Illustrator 19.0.0, SVG Export Plug-In . SVG Version: 6.00 Build 0)  -->
<svg version="1.1" id="Capa_1" xmlns="http://www.w3.org/2000/svg" xmlns:xlink="http://www.w3.org/1999/xlink" x="0px" y="0px"
	 viewBox="0 0 512.058 512.058" style="enable-background:new 0 0 512.058 512.058;" xml:space="preserve">
<g transform="translate(-1)">
	<path style="fill:#14A085;" d="M362.941,135.648L362.941,135.648c-0.245,7.899,5.95,14.506,13.849,14.768h5.57
		c3.886,0.023,7.589,1.658,10.223,4.515l0,0c2.741,2.967,4.254,6.862,4.234,10.901v11.676c0.15,4.83-3.639,8.871-8.469,9.031h-2.71
		c-8.115,0.269-14.48,7.056-14.228,15.172v0.075c-0.138,6.775,4.276,12.805,10.777,14.719l13.795,3.678
		c5.828,1.522,12.02-0.306,16.085-4.751l18.786-20.032c1.887-2.043,4.68-2.99,7.42-2.516c2.74,0.474,5.053,2.305,6.143,4.863
		l0.889,4.392c0.417,2.664,2.09,4.964,4.497,6.18c2.406,1.216,5.251,1.198,7.643-0.047l14.092-7.696
		c3.318-1.84,5.951-4.705,7.506-8.166l8.615-18.857c1.321-3.041,4.299-5.026,7.614-5.076h5.031c3.997-0.091,7.403-2.926,8.216-6.84
		l4.234-18.061c0.702-2.611,0.181-5.4-1.416-7.582c-1.597-2.182-4.099-3.52-6.8-3.639h-19.521c-2.277-0.013-4.445-0.971-5.989-2.645
		l-19.789-21.101c-1.901-2.074-4.738-3.019-7.503-2.499l-77.422,15.01C367.541,122.629,362.78,128.712,362.941,135.648z"/>
	<path style="fill:#46B29D;" d="M168.751,179.415c4.845-2.228,10.447-2.097,15.183,0.353l25.159,12.535
		c1.687,0.86,3.601,1.169,5.473,0.883l19.421-3.266c6.385-1.054,12.841,1.421,16.886,6.472s5.048,11.892,2.624,17.892l-4.326,10.77
		c-1.1,2.741-0.77,5.85,0.883,8.298l8.21,12.447c1.618,2.419,4.305,3.906,7.213,3.994c2.909,0.088,5.68-1.236,7.441-3.553
		l13.859-18.538c3.369-4.509,8.672-7.161,14.301-7.15h8.916c5.629-0.01,10.931,2.641,14.301,7.15l8.563,11.476
		c3.193,4.238,4.339,9.675,3.128,14.841c-1.211,5.166-4.653,9.528-9.396,11.907l-16.243,11.034
		c-5.674,3.852-8.655,10.602-7.68,17.391l0.883,6.003c1.543,2.324,1.91,5.236,0.992,7.87c-0.919,2.634-3.017,4.687-5.67,5.548
		l-36.194,12.094c-4.039,1.386-7.471,4.132-9.71,7.768l-18.185,30.456c-3.255,5.371-9.08,8.651-15.36,8.651h-38.488
		c-8.207,0.014-15.347,5.624-17.302,13.595l-2.825,11.123c-0.657,2.682-0.044,5.517,1.662,7.689
		c1.706,2.171,4.316,3.438,7.077,3.434h6.356c4.964,0.021,8.983,4.04,9.004,9.004v12.359c0.001,3.396,1.913,6.502,4.943,8.033
		l12.888,7.415c3.014,1.505,4.925,4.576,4.943,7.945l-9.534,18.538c-1.122,2.179-3.091,3.802-5.445,4.486
		c-2.354,0.685-4.886,0.371-7.002-0.867l-51.201-29.838c-2.11-0.818-3.84-2.391-4.855-4.414l-33.546-67.18
		c-0.373-0.885-0.948-1.671-1.677-2.295L70.056,347.32c-5.989-6.063-6.91-15.493-2.207-22.599l21.716-32.663
		c3.804-5.677,5.288-12.595,4.149-19.333l-4.414-26.483c-1.493-9.413-10.127-15.985-19.597-14.919l-53.585,6.003
		c-5.953,0.651-11.627-2.689-13.948-8.21H2.083c-2.776-6.544-0.045-14.122,6.268-17.391L58.58,185.33
		c0.747-0.409,1.55-0.707,2.383-0.883l37.43-7.503c3.886-0.795,7.925-0.267,11.476,1.501l22.334,11.211
		c0.353,0.177,0.794,0.353,1.236,0.53L168.751,179.415z"/>
	<path style="fill:#BDC3C7;" d="M133.423,136.859h35.31v114.759c0,9.751-7.904,17.655-17.655,17.655l0,0
		c-9.751,0-17.655-7.904-17.655-17.655V136.859z"/>
	<circle style="fill:#CC4B4C;" cx="151.079" cy="88.307" r="52.966"/>
	<path style="fill:#FB7B76;" d="M133.423,97.135c-4.875,0-8.828-3.952-8.828-8.828c0.016-14.619,11.863-26.467,26.483-26.483
		c4.875,0,8.828,3.952,8.828,8.828s-3.952,8.828-8.828,8.828c-4.873,0.006-8.821,3.955-8.828,8.828
		C142.251,93.183,138.299,97.135,133.423,97.135z"/>
</g>
<g>
</g>
<g>
</g>
<g>
</g>
<g>
</g>
<g>
</g>
<g>
</g>
<g>
</g>
<g>
</g>
<g>
</g>
<g>
</g>
<g>
</g>
<g>
</g>
<g>
</g>
<g>
</g>
<g>
</g>
</svg>
